<?xml version="1.0" encoding="UTF-8" standalone="no"?>
<!DOCTYPE svg PUBLIC "-//W3C//DTD SVG 1.1//EN" "http://www.w3.org/Graphics/SVG/1.1/DTD/svg11.dtd">
<svg xmlns="http://www.w3.org/2000/svg" version="1.1" viewBox="0 0 512 512" width="512.0pt" height="512.0pt" xmlns:xlink="http://www.w3.org/1999/xlink">
<defs>
<path d="M 0.00 0.00 L 512.00 0.00 L 512.00 512.00 L 0.00 512.00 L 0.00 0.00 Z M 234.27 118.45 C 232.48 119.29 230.67 120.10 228.86 120.91 C 228.63 121.57 228.39 122.22 228.16 122.87 C 222.35 122.28 216.41 123.30 211.38 126.36 C 203.63 130.05 195.11 132.41 186.92 134.94 C 176.83 138.11 166.53 140.94 156.15 142.98 C 146.43 144.70 136.69 146.19 126.89 147.36 C 126.82 180.90 126.84 214.46 126.82 248.00 C 126.03 272.84 131.15 298.69 143.63 320.36 C 154.33 338.91 169.31 354.69 186.02 367.94 C 195.13 375.89 205.28 381.95 215.19 388.81 C 221.25 392.52 227.37 396.11 233.74 399.28 C 241.01 403.27 248.32 407.13 256.08 410.10 C 262.61 407.47 268.74 404.23 274.94 400.93 C 287.78 394.42 299.81 386.70 311.82 378.81 C 332.02 364.15 351.29 347.04 365.15 326.10 C 372.56 313.69 378.89 301.10 381.85 286.84 C 384.25 274.40 385.49 261.68 385.27 249.00 C 385.17 215.10 385.35 181.19 385.20 147.28 C 370.36 146.35 356.41 143.27 342.03 139.74 C 330.22 136.64 318.64 132.86 307.21 128.57 C 296.21 124.37 285.36 119.52 274.11 116.07 C 268.79 115.08 264.14 113.84 259.10 111.87 C 250.47 112.63 242.05 114.55 234.27 118.45 Z" id="p0" />
<path d="M 259.10 111.87 C 264.14 113.84 268.79 115.08 274.11 116.07 C 285.36 119.52 296.21 124.37 307.21 128.57 C 318.64 132.86 330.22 136.64 342.03 139.74 C 356.41 143.27 370.36 146.35 385.20 147.28 C 385.35 181.19 385.17 215.10 385.27 249.00 C 385.49 261.68 384.25 274.40 381.85 286.84 C 378.89 301.10 372.56 313.69 365.15 326.10 C 351.29 347.04 332.02 364.15 311.82 378.81 C 299.81 386.70 287.78 394.42 274.94 400.93 C 268.74 404.23 262.61 407.47 256.08 410.10 C 248.32 407.13 241.01 403.27 233.74 399.28 C 227.37 396.11 221.25 392.52 215.19 388.81 C 205.28 381.95 195.13 375.89 186.02 367.94 C 169.31 354.69 154.33 338.91 143.63 320.36 C 131.15 298.69 126.03 272.84 126.82 248.00 C 126.84 214.46 126.82 180.90 126.89 147.36 C 136.69 146.19 146.43 144.70 156.15 142.98 C 166.53 140.94 176.83 138.11 186.92 134.94 C 195.11 132.41 203.63 130.05 211.38 126.36 C 216.41 123.30 222.35 122.28 228.16 122.87 C 235.43 123.82 242.19 125.41 248.26 129.72 C 253.96 134.12 257.47 139.79 258.81 146.88 C 260.19 153.49 262.31 161.12 260.98 167.83 C 262.55 165.59 264.65 163.21 265.46 160.57 C 266.47 157.00 266.81 153.32 266.71 149.62 C 266.72 147.96 266.67 146.31 266.64 144.66 C 269.38 148.82 270.10 153.36 270.22 158.25 C 273.11 153.53 275.01 148.62 274.27 142.96 C 273.46 135.96 268.44 130.92 262.85 127.17 C 257.41 123.79 251.27 121.46 244.99 120.24 C 240.74 119.40 236.63 119.70 232.35 119.58 L 234.27 118.45 C 242.05 114.55 250.47 112.63 259.10 111.87 Z M 283.86 137.75 C 284.57 146.68 280.36 153.36 275.90 160.63 C 279.20 159.27 282.60 158.08 286.02 157.06 C 291.15 155.52 296.90 155.69 301.88 153.82 C 305.45 152.42 307.71 149.23 308.52 145.56 L 307.04 144.59 C 303.74 146.26 300.99 148.46 297.25 149.17 C 295.72 149.55 294.21 150.00 292.70 150.46 C 296.87 142.90 295.53 130.87 287.11 126.83 C 283.01 124.56 278.40 123.13 273.84 122.13 C 278.83 126.27 282.54 131.30 283.86 137.75 Z M 202.68 142.57 C 206.61 140.56 210.73 140.34 215.00 139.60 C 217.64 139.16 220.18 139.50 222.81 139.82 C 222.69 140.65 222.58 141.47 222.46 142.30 C 215.75 141.73 209.90 143.71 203.55 145.49 C 199.27 146.66 196.37 149.25 192.34 151.36 C 199.04 149.84 206.21 150.15 213.03 150.52 C 225.08 151.80 237.16 153.57 247.71 159.89 C 245.07 157.07 242.46 153.93 239.53 151.45 C 235.77 148.28 231.31 146.83 228.10 142.93 C 234.52 141.16 240.74 143.65 246.33 146.68 C 250.03 148.67 252.95 151.48 256.27 153.98 C 255.80 149.86 252.57 146.10 250.15 142.87 C 244.71 136.90 237.13 131.80 229.02 130.56 C 224.05 129.65 219.10 131.29 214.89 133.87 C 210.73 136.65 206.62 139.49 202.68 142.57 Z M 371.72 159.60 C 371.85 188.07 371.71 216.53 371.75 245.00 C 371.94 261.00 371.20 277.11 366.49 292.53 C 361.80 306.79 354.41 320.27 344.80 331.82 C 339.09 339.30 332.07 345.80 325.17 352.17 C 312.34 363.55 298.12 372.61 283.55 381.55 C 274.63 386.78 265.34 391.42 255.99 395.82 C 240.88 389.13 226.96 380.75 212.96 372.05 C 208.26 368.77 203.79 365.19 198.98 362.04 C 189.22 354.38 179.85 346.68 171.85 337.12 C 159.34 323.30 149.13 306.35 144.51 288.19 C 142.11 279.76 141.16 271.19 140.52 262.48 C 139.97 238.03 140.50 213.55 140.29 189.10 C 140.16 179.21 140.42 169.33 140.29 159.44 C 156.81 156.81 173.12 153.41 189.03 148.15 C 196.88 144.18 202.67 138.24 209.10 133.18 C 204.05 135.93 198.59 137.16 193.20 139.20 C 182.69 142.30 172.23 145.49 161.53 147.83 C 152.02 150.43 142.34 151.53 132.56 152.52 C 132.72 187.68 132.51 222.84 132.72 258.00 C 132.83 266.26 133.91 274.75 135.55 282.85 C 137.68 290.95 139.62 298.96 143.28 306.54 C 145.90 313.82 150.03 320.13 154.35 326.60 C 168.64 347.25 187.21 363.20 207.90 377.18 C 214.72 382.30 222.44 385.77 229.50 390.48 C 237.33 394.73 245.13 398.98 253.23 402.70 C 254.17 403.05 255.49 403.83 256.48 403.40 C 271.61 397.01 285.37 388.77 299.47 380.43 C 317.95 368.03 336.12 353.61 350.32 336.35 C 356.73 328.19 363.41 319.32 367.62 309.79 C 376.61 291.61 379.70 270.12 379.38 250.00 C 379.46 217.62 379.46 185.24 379.47 152.86 C 363.67 151.06 348.07 147.80 332.80 143.38 C 325.70 141.04 318.55 138.87 311.50 136.41 C 307.37 134.96 303.45 132.99 299.34 131.49 C 300.16 133.88 300.91 136.49 302.30 138.61 C 304.90 141.37 309.50 142.34 312.84 144.09 C 318.86 147.10 325.13 148.54 331.51 150.56 C 344.70 154.73 358.12 157.23 371.72 159.60 Z M 194.17 191.47 C 195.55 191.06 196.93 190.64 198.30 190.20 C 193.12 183.40 187.30 174.66 187.54 165.78 C 188.13 165.13 188.71 164.49 189.30 163.84 C 196.42 163.63 203.02 165.28 210.00 166.36 C 214.80 167.16 219.23 169.06 224.13 169.42 C 216.86 163.17 208.24 160.30 199.03 158.24 C 194.33 157.50 188.95 157.60 184.52 159.48 C 182.42 160.49 181.60 161.57 181.63 163.97 C 182.01 174.45 186.08 184.59 194.17 191.47 Z M 295.75 169.47 C 300.89 169.59 305.55 167.57 310.78 166.79 C 316.47 165.98 322.27 164.71 328.02 164.65 C 329.63 164.83 331.88 164.57 332.69 166.30 C 333.20 169.73 331.84 173.60 330.81 176.84 C 328.76 183.08 324.71 187.80 321.95 193.60 C 322.96 194.02 323.98 194.45 324.99 194.89 C 329.13 190.85 332.93 186.49 334.94 180.97 C 337.03 175.50 338.76 168.91 337.84 163.08 C 337.08 159.67 333.89 159.52 331.03 158.96 C 318.46 158.35 305.90 162.01 295.75 169.47 Z M 259.96 204.07 C 258.95 197.01 259.49 188.26 255.93 182.00 C 253.24 177.83 248.97 174.19 244.05 173.03 C 236.70 171.21 228.75 174.24 223.57 179.52 C 218.70 185.65 215.57 193.35 213.68 200.90 C 212.07 208.68 211.72 218.26 215.49 225.50 C 219.56 232.43 226.67 237.92 234.07 240.87 C 235.56 241.78 236.37 240.10 237.13 239.09 C 239.40 235.38 239.67 230.25 240.18 226.02 C 240.23 223.76 240.87 220.52 239.20 218.73 C 235.52 217.62 231.29 218.31 228.03 215.96 C 224.62 213.77 223.20 209.77 220.13 207.44 C 218.00 206.96 215.34 207.99 213.15 208.13 C 214.48 207.26 215.82 206.39 217.15 205.52 C 218.49 204.65 219.83 203.80 221.19 202.96 C 228.04 204.53 234.38 204.84 240.56 208.45 C 242.85 209.96 244.21 211.34 244.58 214.15 C 245.88 224.73 243.27 235.55 239.24 245.29 C 237.11 250.18 231.24 252.98 229.93 257.99 C 229.18 262.77 230.77 268.10 232.49 272.56 C 234.26 275.96 237.61 280.61 241.98 280.09 C 248.32 279.56 255.54 276.45 259.38 271.23 C 255.52 263.69 246.01 259.17 239.78 253.54 C 240.19 251.65 240.83 249.86 241.49 248.06 C 245.47 249.01 249.19 249.40 252.89 251.06 C 255.58 252.28 258.19 253.64 260.92 254.79 C 267.31 252.20 272.23 248.47 279.46 249.15 C 279.58 247.75 279.73 246.35 279.80 244.95 C 280.47 247.49 282.55 251.68 281.14 254.12 C 277.63 258.23 271.70 259.85 267.99 263.98 C 265.44 266.28 263.28 270.09 259.98 271.20 C 260.57 271.22 261.16 271.24 261.75 271.26 C 265.28 275.33 270.05 278.02 275.19 279.50 C 278.90 280.30 282.66 280.50 285.43 277.47 C 289.44 272.98 290.74 265.77 291.52 259.98 C 291.96 256.64 289.08 254.17 287.08 251.91 C 284.46 249.24 282.91 246.05 281.16 242.80 C 278.38 237.86 277.56 231.55 276.95 225.98 C 276.44 221.58 276.84 217.23 277.52 212.88 C 278.68 211.10 279.55 209.41 281.71 208.72 C 288.27 206.50 294.30 203.73 301.31 203.17 C 303.34 204.74 305.50 206.08 307.66 207.45 C 305.48 207.65 303.30 207.61 301.12 207.75 C 298.44 210.25 297.04 213.77 293.73 215.81 C 290.30 218.52 286.75 218.15 282.68 218.62 C 280.54 222.16 281.00 226.08 281.36 230.03 C 281.85 234.33 282.75 238.37 285.93 241.53 C 293.14 239.30 300.24 234.91 304.78 228.80 C 309.36 222.28 309.72 215.01 309.36 207.29 C 309.18 202.79 307.50 199.14 306.19 194.85 C 303.49 186.93 300.24 179.66 292.48 175.55 C 284.06 170.54 272.31 172.42 266.10 180.02 C 261.60 186.58 261.00 196.41 259.96 204.07 Z M 156.97 211.48 C 158.75 210.59 160.54 209.71 162.39 208.96 C 165.68 207.66 168.96 206.39 172.41 205.59 C 169.33 209.50 165.86 212.98 163.25 217.26 C 154.80 230.60 147.52 245.17 145.54 261.02 C 150.52 255.56 154.64 250.03 160.33 245.28 C 169.87 236.95 180.41 230.79 190.51 223.53 C 193.86 221.33 197.33 219.44 200.34 216.76 C 191.52 217.37 184.29 220.89 176.32 224.31 C 173.83 225.38 171.44 226.65 169.07 227.95 C 172.58 223.93 176.02 219.51 180.09 216.11 C 184.76 212.00 189.83 208.42 195.10 205.12 C 197.72 203.50 200.07 201.53 202.31 199.42 C 195.30 199.29 188.42 200.22 182.40 204.03 C 185.70 200.00 189.14 195.82 193.34 192.70 C 188.05 192.67 182.92 192.99 177.68 193.63 L 177.04 193.05 C 179.58 189.11 184.00 186.10 185.59 181.69 C 183.91 181.90 182.41 182.00 181.01 183.05 C 170.32 190.18 162.81 200.17 156.97 211.48 Z M 340.72 234.84 C 337.61 231.16 335.34 227.49 331.39 224.66 C 327.40 221.80 323.47 218.54 319.09 216.46 C 321.53 222.85 325.62 227.85 330.14 232.86 C 334.97 238.09 339.85 243.26 344.77 248.40 C 350.72 254.15 354.77 261.03 359.25 267.87 C 359.17 255.73 356.51 244.52 351.79 233.39 C 349.97 228.07 347.24 223.44 344.39 218.63 C 340.49 212.34 336.24 205.62 330.55 200.80 C 330.89 202.74 331.22 204.68 331.50 206.63 C 327.23 205.10 324.08 202.18 320.36 199.76 C 322.75 204.23 326.02 207.97 328.87 212.13 C 333.78 219.13 337.69 226.86 340.72 234.84 Z M 178.10 248.97 C 170.50 258.01 168.18 270.48 168.66 281.99 C 169.12 295.53 172.30 310.19 177.27 322.80 C 182.54 335.82 189.23 347.75 201.03 355.91 C 205.27 359.28 210.00 361.58 214.93 363.73 C 206.98 356.72 199.85 348.91 193.77 340.21 C 189.26 333.07 184.84 325.94 181.48 318.16 C 179.18 311.07 176.76 304.57 176.77 297.00 C 176.03 286.54 178.40 276.02 184.27 267.27 C 187.90 261.83 191.91 256.49 196.70 252.01 C 200.31 248.38 204.09 244.90 207.93 241.51 C 203.59 242.54 199.52 244.97 195.49 246.85 C 192.83 248.08 190.58 249.82 188.31 251.63 C 189.53 249.11 190.87 246.70 192.41 244.36 C 195.52 240.18 199.26 236.66 202.96 233.03 C 193.47 235.94 184.77 241.65 178.10 248.97 Z M 328.25 250.26 C 324.22 246.86 320.91 243.17 315.85 241.22 C 321.10 249.07 326.08 257.88 328.27 267.12 C 322.75 261.16 317.23 257.82 309.44 255.52 C 314.64 263.82 320.52 271.36 324.30 280.53 C 326.48 285.21 327.65 290.13 328.57 295.19 C 329.36 306.75 327.12 318.61 322.49 329.22 C 320.26 335.15 316.55 339.96 313.15 345.21 C 317.59 339.09 323.04 334.76 326.11 328.08 C 332.65 316.55 336.29 303.29 336.49 290.04 C 337.07 283.24 336.07 276.65 335.66 269.91 C 343.66 278.26 346.76 290.25 346.58 301.58 C 352.64 289.38 349.83 274.47 344.53 262.51 C 342.49 257.44 339.25 253.55 336.14 248.96 C 334.16 246.15 331.59 244.32 329.06 241.92 C 325.61 238.95 323.10 235.72 318.62 234.25 C 322.51 239.20 325.33 244.71 328.25 250.26 Z M 209.46 257.32 C 202.73 260.13 196.75 264.48 192.50 270.46 C 191.06 272.62 190.26 275.28 189.73 277.80 C 188.63 283.68 189.59 290.09 191.11 295.83 C 192.29 285.86 197.24 276.25 203.53 268.54 C 206.71 264.49 209.88 260.55 213.64 257.02 C 212.25 257.09 210.85 257.20 209.46 257.32 Z M 219.11 271.21 C 214.46 274.65 210.60 278.93 208.31 284.30 C 205.21 290.97 204.98 298.20 206.21 305.37 C 206.89 310.03 209.06 314.66 211.08 318.89 C 212.08 321.03 213.53 322.82 215.11 324.56 C 212.82 318.20 212.78 311.68 212.91 304.99 C 213.21 295.48 215.15 286.21 218.10 277.19 C 219.06 274.55 220.35 271.97 221.51 269.40 C 220.71 270.00 219.91 270.61 219.11 271.21 Z M 301.94 269.27 C 302.13 270.45 302.32 271.63 302.54 272.81 C 305.20 281.81 306.55 290.62 305.69 300.03 C 305.30 298.91 304.90 297.79 304.49 296.67 C 302.84 291.85 299.68 288.04 295.87 284.75 C 300.67 301.53 301.17 319.34 295.75 336.05 C 300.95 330.82 303.88 324.45 306.92 317.87 C 309.05 312.76 310.11 307.40 310.74 301.92 C 311.13 301.46 311.51 301.01 311.90 300.54 C 312.29 301.66 312.71 302.77 313.07 303.90 C 315.96 317.19 313.44 329.73 309.18 342.36 C 312.96 334.94 316.69 327.74 318.28 319.48 C 320.00 310.97 319.18 302.18 316.77 293.90 C 314.15 283.87 308.00 277.27 301.94 269.27 Z M 239.28 285.66 C 239.21 288.88 239.52 291.86 241.38 294.60 C 243.99 298.82 249.23 300.49 253.93 300.77 C 255.27 300.86 256.31 299.20 257.27 298.42 C 260.38 300.23 263.55 300.06 267.00 300.66 C 271.40 301.68 276.11 299.10 278.63 295.59 C 280.73 292.57 280.64 289.42 280.94 285.90 C 273.33 284.15 264.10 277.79 256.19 280.37 C 250.59 282.34 245.09 284.37 239.28 285.66 Z M 238.86 348.79 C 238.86 344.32 239.03 339.88 239.81 335.48 C 244.11 345.84 243.06 355.58 244.74 366.18 C 245.74 372.34 248.25 377.43 252.17 382.23 C 251.33 377.43 251.55 373.62 252.79 368.93 C 255.65 356.63 258.90 345.51 255.14 332.89 C 251.44 323.33 243.45 316.49 235.45 310.53 C 230.74 307.09 227.79 301.84 227.20 296.05 C 227.00 293.42 227.11 290.87 227.20 288.25 C 222.70 291.98 220.22 297.34 219.17 303.00 C 218.17 311.82 221.61 318.96 225.46 326.57 C 229.62 334.23 235.14 340.95 238.86 348.79 Z M 275.03 313.91 C 274.25 313.79 273.47 313.67 272.69 313.55 C 272.13 312.29 271.57 311.03 271.01 309.78 C 270.83 310.87 270.64 311.97 270.47 313.07 C 268.31 310.65 265.65 309.89 262.64 309.10 C 264.39 312.60 265.96 316.12 267.04 319.90 C 269.45 330.16 269.93 341.68 266.68 351.82 C 264.10 359.66 260.02 366.29 255.81 373.30 C 260.62 369.09 265.40 365.27 268.70 359.65 C 273.80 350.75 276.80 340.86 277.30 330.59 L 277.90 328.81 C 278.16 329.14 278.41 329.48 278.66 329.82 C 278.92 333.93 278.95 338.00 277.94 342.03 C 276.99 346.46 275.06 350.48 273.86 354.83 C 273.41 356.77 272.12 357.96 271.00 359.53 C 285.32 350.19 292.60 330.15 284.70 314.41 C 283.17 310.90 281.22 307.66 279.19 304.43 C 277.55 306.17 275.24 307.40 273.80 309.29 C 273.74 310.84 274.58 312.43 275.03 313.91 Z" id="p1" />
<path d="M 234.27 118.45 L 232.35 119.58 C 236.63 119.70 240.74 119.40 244.99 120.24 C 251.27 121.46 257.41 123.79 262.85 127.17 C 268.44 130.92 273.46 135.96 274.27 142.96 C 275.01 148.62 273.11 153.53 270.22 158.25 C 270.10 153.36 269.38 148.82 266.64 144.66 C 266.67 146.31 266.72 147.96 266.71 149.62 C 264.45 153.22 264.36 156.39 264.46 160.51 L 262.52 160.43 C 262.45 156.22 262.48 152.17 261.00 148.14 C 260.27 147.71 259.54 147.29 258.81 146.88 C 257.47 139.79 253.96 134.12 248.26 129.72 C 242.19 125.41 235.43 123.82 228.16 122.87 C 228.39 122.22 228.63 121.57 228.86 120.91 C 230.67 120.10 232.48 119.29 234.27 118.45 Z" id="p2" />
<path d="M 273.84 122.13 C 278.40 123.13 283.01 124.56 287.11 126.83 C 295.53 130.87 296.87 142.90 292.70 150.46 C 294.21 150.00 295.72 149.55 297.25 149.17 C 299.65 149.35 302.01 149.66 304.40 149.98 C 303.41 151.18 303.17 152.30 301.40 152.33 C 294.83 152.87 288.69 154.79 282.12 154.47 C 283.98 148.76 285.70 143.80 283.86 137.75 C 282.54 131.30 278.83 126.27 273.84 122.13 Z" id="p3" />
<path d="M 229.02 130.56 C 237.13 131.80 244.71 136.90 250.15 142.87 C 252.57 146.10 255.80 149.86 256.27 153.98 C 252.95 151.48 250.03 148.67 246.33 146.68 C 240.74 143.65 234.52 141.16 228.10 142.93 C 231.31 146.83 235.77 148.28 239.53 151.45 C 242.46 153.93 245.07 157.07 247.71 159.89 C 237.16 153.57 225.08 151.80 213.03 150.52 C 206.21 150.15 199.04 149.84 192.34 151.36 C 196.37 149.25 199.27 146.66 203.55 145.49 C 209.90 143.71 215.75 141.73 222.46 142.30 C 222.58 141.47 222.69 140.65 222.81 139.82 C 220.18 139.50 217.64 139.16 215.00 139.60 C 210.73 140.34 206.61 140.56 202.68 142.57 C 206.62 139.49 210.73 136.65 214.89 133.87 C 219.10 131.29 224.05 129.65 229.02 130.56 Z" id="p4" />
<path d="M 299.34 131.49 C 303.45 132.99 307.37 134.96 311.50 136.41 C 318.55 138.87 325.70 141.04 332.80 143.38 C 348.07 147.80 363.67 151.06 379.47 152.86 C 379.46 185.24 379.46 217.62 379.38 250.00 C 379.70 270.12 376.61 291.61 367.62 309.79 C 363.41 319.32 356.73 328.19 350.32 336.35 C 336.12 353.61 317.95 368.03 299.47 380.43 C 285.37 388.77 271.61 397.01 256.48 403.40 C 255.49 403.83 254.17 403.05 253.23 402.70 C 245.13 398.98 237.33 394.73 229.50 390.48 C 222.44 385.77 214.72 382.30 207.90 377.18 C 187.21 363.20 168.64 347.25 154.35 326.60 C 150.03 320.13 145.90 313.82 143.28 306.54 C 139.62 298.96 137.68 290.95 135.55 282.85 C 133.91 274.75 132.83 266.26 132.72 258.00 C 132.51 222.84 132.72 187.68 132.56 152.52 C 142.34 151.53 152.02 150.43 161.53 147.83 C 172.23 145.49 182.69 142.30 193.20 139.20 C 198.59 137.16 204.05 135.93 209.10 133.18 C 202.67 138.24 196.88 144.18 189.03 148.15 C 173.12 153.41 156.81 156.81 140.29 159.44 C 139.29 162.28 139.48 165.05 139.41 168.00 C 139.41 173.58 137.96 178.65 138.76 184.26 C 140.12 193.56 139.35 202.90 139.02 211.97 C 139.92 221.31 139.08 230.62 139.53 239.99 C 139.78 243.66 138.84 247.17 138.72 250.80 C 138.90 254.73 139.61 258.66 140.52 262.48 C 141.16 271.19 142.11 279.76 144.51 288.19 C 149.13 306.35 159.34 323.30 171.85 337.12 C 179.85 346.68 189.22 354.38 198.98 362.04 C 203.79 365.19 208.26 368.77 212.96 372.05 C 226.96 380.75 240.88 389.13 255.99 395.82 C 265.34 391.42 274.63 386.78 283.55 381.55 C 298.12 372.61 312.34 363.55 325.17 352.17 C 332.07 345.80 339.09 339.30 344.80 331.82 C 354.41 320.27 361.80 306.79 366.49 292.53 C 371.20 277.11 371.94 261.00 371.75 245.00 C 371.71 216.53 371.85 188.07 371.72 159.60 C 358.12 157.23 344.70 154.73 331.51 150.56 C 325.13 148.54 318.86 147.10 312.84 144.09 C 309.50 142.34 304.90 141.37 302.30 138.61 C 300.91 136.49 300.16 133.88 299.34 131.49 Z" id="p5" />
<path d="M 283.86 137.75 C 285.70 143.80 283.98 148.76 282.12 154.47 C 288.69 154.79 294.83 152.87 301.40 152.33 C 303.17 152.30 303.41 151.18 304.40 149.98 C 302.01 149.66 299.65 149.35 297.25 149.17 C 300.99 148.46 303.74 146.26 307.04 144.59 L 308.52 145.56 C 307.71 149.23 305.45 152.42 301.88 153.82 C 296.90 155.69 291.15 155.52 286.02 157.06 C 282.60 158.08 279.20 159.27 275.90 160.63 C 280.36 153.36 284.57 146.68 283.86 137.75 Z" id="p6" />
<path d="M 258.81 146.88 C 259.54 147.29 260.27 147.71 261.00 148.14 C 262.48 152.17 262.45 156.22 262.52 160.43 L 264.46 160.51 C 264.36 156.39 264.45 153.22 266.71 149.62 C 266.81 153.32 266.47 157.00 265.46 160.57 C 264.65 163.21 262.55 165.59 260.98 167.83 C 262.31 161.12 260.19 153.49 258.81 146.88 Z" id="p7" />
<path d="M 199.03 158.24 C 208.24 160.30 216.86 163.17 224.13 169.42 C 219.23 169.06 214.80 167.16 210.00 166.36 C 203.02 165.28 196.42 163.63 189.30 163.84 C 188.71 164.49 188.13 165.13 187.54 165.78 C 187.30 174.66 193.12 183.40 198.30 190.20 C 196.93 190.64 195.55 191.06 194.17 191.47 C 186.08 184.59 182.01 174.45 181.63 163.97 C 181.60 161.57 182.42 160.49 184.52 159.48 C 188.95 157.60 194.33 157.50 199.03 158.24 Z" id="p8" />
<path d="M 331.03 158.96 C 333.89 159.52 337.08 159.67 337.84 163.08 C 338.76 168.91 337.03 175.50 334.94 180.97 C 332.93 186.49 329.13 190.85 324.99 194.89 C 323.98 194.45 322.96 194.02 321.95 193.60 C 324.71 187.80 328.76 183.08 330.81 176.84 C 331.84 173.60 333.20 169.73 332.69 166.30 C 331.88 164.57 329.63 164.83 328.02 164.65 C 322.27 164.71 316.47 165.98 310.78 166.79 C 305.55 167.57 300.89 169.59 295.75 169.47 C 305.90 162.01 318.46 158.35 331.03 158.96 Z" id="p9" />
<path d="M 140.29 159.44 C 140.42 169.33 140.16 179.21 140.29 189.10 C 140.50 213.55 139.97 238.03 140.52 262.48 C 139.61 258.66 138.90 254.73 138.72 250.80 C 138.84 247.17 139.78 243.66 139.53 239.99 C 139.08 230.62 139.92 221.31 139.02 211.97 C 139.35 202.90 140.12 193.56 138.76 184.26 C 137.96 178.65 139.41 173.58 139.41 168.00 C 139.48 165.05 139.29 162.28 140.29 159.44 Z" id="p10" />
<path d="M 292.48 175.55 C 300.24 179.66 303.49 186.93 306.19 194.85 C 307.50 199.14 309.18 202.79 309.36 207.29 C 308.79 207.35 308.23 207.40 307.66 207.45 C 305.50 206.08 303.34 204.74 301.31 203.17 C 294.30 203.73 288.27 206.50 281.71 208.72 C 279.55 209.41 278.68 211.10 277.52 212.88 C 276.73 214.24 275.82 215.36 275.71 216.99 C 275.47 220.47 274.52 224.41 275.44 227.82 C 276.85 233.62 277.34 239.43 279.80 244.95 C 279.73 246.35 279.58 247.75 279.46 249.15 C 272.23 248.47 267.31 252.20 260.92 254.79 C 258.19 253.64 255.58 252.28 252.89 251.06 C 249.19 249.40 245.47 249.01 241.49 248.06 C 242.23 244.78 242.31 241.48 243.33 238.25 C 245.33 232.07 246.28 225.48 246.42 219.00 C 246.35 215.48 246.35 211.34 243.69 208.67 C 242.65 208.60 241.60 208.53 240.56 208.45 C 234.38 204.84 228.04 204.53 221.19 202.96 C 219.83 203.80 218.49 204.65 217.15 205.52 C 215.94 205.48 214.74 205.46 213.53 205.45 C 213.56 203.93 213.61 202.41 213.68 200.90 C 215.57 193.35 218.70 185.65 223.57 179.52 C 228.75 174.24 236.70 171.21 244.05 173.03 C 248.97 174.19 253.24 177.83 255.93 182.00 C 259.49 188.26 258.95 197.01 259.96 204.07 C 261.00 196.41 261.60 186.58 266.10 180.02 C 272.31 172.42 284.06 170.54 292.48 175.55 Z" id="p11" />
<path d="M 185.59 181.69 C 184.00 186.10 179.58 189.11 177.04 193.05 C 176.35 192.38 175.66 191.72 174.96 191.06 C 169.23 193.58 166.35 198.31 163.04 203.29 C 161.84 204.94 162.44 207.06 162.39 208.96 C 160.54 209.71 158.75 210.59 156.97 211.48 C 162.81 200.17 170.32 190.18 181.01 183.05 C 182.41 182.00 183.91 181.90 185.59 181.69 Z" id="p12" />
<path d="M 174.96 191.06 C 175.66 191.72 176.35 192.38 177.04 193.05 L 177.68 193.63 C 182.92 192.99 188.05 192.67 193.34 192.70 C 189.14 195.82 185.70 200.00 182.40 204.03 C 188.42 200.22 195.30 199.29 202.31 199.42 C 200.07 201.53 197.72 203.50 195.10 205.12 C 189.83 208.42 184.76 212.00 180.09 216.11 C 176.02 219.51 172.58 223.93 169.07 227.95 C 171.44 226.65 173.83 225.38 176.32 224.31 C 184.29 220.89 191.52 217.37 200.34 216.76 C 197.33 219.44 193.86 221.33 190.51 223.53 C 180.41 230.79 169.87 236.95 160.33 245.28 C 154.64 250.03 150.52 255.56 145.54 261.02 C 147.52 245.17 154.80 230.60 163.25 217.26 C 165.86 212.98 169.33 209.50 172.41 205.59 C 168.96 206.39 165.68 207.66 162.39 208.96 C 162.44 207.06 161.84 204.94 163.04 203.29 C 166.35 198.31 169.23 193.58 174.96 191.06 Z" id="p13" />
<path d="M 320.36 199.76 C 324.08 202.18 327.23 205.10 331.50 206.63 C 331.22 204.68 330.89 202.74 330.55 200.80 C 336.24 205.62 340.49 212.34 344.39 218.63 C 347.24 223.44 349.97 228.07 351.79 233.39 C 351.37 238.55 352.77 243.38 351.30 248.52 C 349.13 248.47 346.95 248.46 344.77 248.40 C 339.85 243.26 334.97 238.09 330.14 232.86 C 325.62 227.85 321.53 222.85 319.09 216.46 C 323.47 218.54 327.40 221.80 331.39 224.66 C 335.34 227.49 337.61 231.16 340.72 234.84 C 337.69 226.86 333.78 219.13 328.87 212.13 C 326.02 207.97 322.75 204.23 320.36 199.76 Z" id="p14" />
<path d="M 213.68 200.90 C 213.61 202.41 213.56 203.93 213.53 205.45 C 214.74 205.46 215.94 205.48 217.15 205.52 C 215.82 206.39 214.48 207.26 213.15 208.13 C 215.34 207.99 218.00 206.96 220.13 207.44 C 223.20 209.77 224.62 213.77 228.03 215.96 C 231.29 218.31 235.52 217.62 239.20 218.73 C 240.87 220.52 240.23 223.76 240.18 226.02 C 239.67 230.25 239.40 235.38 237.13 239.09 C 236.37 240.10 235.56 241.78 234.07 240.87 C 226.67 237.92 219.56 232.43 215.49 225.50 C 211.72 218.26 212.07 208.68 213.68 200.90 Z" id="p15" />
<path d="M 309.36 207.29 C 309.72 215.01 309.36 222.28 304.78 228.80 C 300.24 234.91 293.14 239.30 285.93 241.53 C 282.75 238.37 281.85 234.33 281.36 230.03 C 281.00 226.08 280.54 222.16 282.68 218.62 C 286.75 218.15 290.30 218.52 293.73 215.81 C 297.04 213.77 298.44 210.25 301.12 207.75 C 303.30 207.61 305.48 207.65 307.66 207.45 C 308.23 207.40 308.79 207.35 309.36 207.29 Z" id="p16" />
<path d="M 243.69 208.67 C 246.35 211.34 246.35 215.48 246.42 219.00 C 246.28 225.48 245.33 232.07 243.33 238.25 C 242.31 241.48 242.23 244.78 241.49 248.06 C 240.83 249.86 240.19 251.65 239.78 253.54 C 246.01 259.17 255.52 263.69 259.38 271.23 C 255.54 276.45 248.32 279.56 241.98 280.09 C 237.61 280.61 234.26 275.96 232.49 272.56 C 230.77 268.10 229.18 262.77 229.93 257.99 C 231.24 252.98 237.11 250.18 239.24 245.29 C 243.27 235.55 245.88 224.73 244.58 214.15 C 244.21 211.34 242.85 209.96 240.56 208.45 C 241.60 208.53 242.65 208.60 243.69 208.67 Z M 240.08 264.27 C 239.61 264.08 239.13 263.89 238.66 263.69 C 237.25 263.32 235.84 262.89 234.40 262.60 C 234.01 263.41 234.24 264.05 235.11 264.52 C 236.77 264.49 238.42 264.36 240.08 264.27 Z M 234.75 270.39 C 235.58 271.59 237.81 271.54 238.40 270.13 C 238.13 268.50 235.43 269.63 234.75 270.39 Z" id="p17" />
<path d="M 277.52 212.88 C 276.84 217.23 276.44 221.58 276.95 225.98 C 277.56 231.55 278.38 237.86 281.16 242.80 C 282.91 246.05 284.46 249.24 287.08 251.91 C 289.08 254.17 291.96 256.64 291.52 259.98 C 290.74 265.77 289.44 272.98 285.43 277.47 C 282.66 280.50 278.90 280.30 275.19 279.50 C 270.05 278.02 265.28 275.33 261.75 271.26 C 261.16 271.24 260.57 271.22 259.98 271.20 C 263.28 270.09 265.44 266.28 267.99 263.98 C 271.70 259.85 277.63 258.23 281.14 254.12 C 282.55 251.68 280.47 247.49 279.80 244.95 C 277.34 239.43 276.85 233.62 275.44 227.82 C 274.52 224.41 275.47 220.47 275.71 216.99 C 275.82 215.36 276.73 214.24 277.52 212.88 Z M 283.22 263.10 C 283.21 264.03 283.37 264.95 283.71 265.88 C 284.83 265.03 286.16 264.12 286.82 262.86 C 285.44 262.48 284.23 262.56 283.22 263.10 Z M 286.60 270.12 C 284.76 269.67 282.89 269.48 280.99 269.45 C 281.59 270.10 282.22 270.71 282.88 271.29 C 284.15 271.10 285.39 270.52 286.60 270.12 Z" id="p18" />
<path d="M 202.96 233.03 C 199.26 236.66 195.52 240.18 192.41 244.36 C 192.56 242.91 192.68 241.47 192.78 240.02 C 188.12 239.83 186.84 243.75 184.48 246.89 C 181.93 246.75 180.17 247.60 178.10 248.97 C 184.77 241.65 193.47 235.94 202.96 233.03 Z" id="p19" />
<path d="M 318.62 234.25 C 323.10 235.72 325.61 238.95 329.06 241.92 C 331.59 244.32 334.16 246.15 336.14 248.96 C 334.96 252.52 337.60 253.99 339.22 256.77 C 341.36 259.62 342.25 262.78 342.78 266.26 C 341.69 265.76 340.59 265.26 339.49 264.75 C 338.61 267.12 337.67 268.33 335.66 269.91 C 336.07 276.65 337.07 283.24 336.49 290.04 C 333.42 293.68 334.03 299.49 332.42 303.96 C 330.59 301.18 330.67 297.83 328.57 295.19 C 327.65 290.13 326.48 285.21 324.30 280.53 C 320.52 271.36 314.64 263.82 309.44 255.52 C 317.23 257.82 322.75 261.16 328.27 267.12 C 326.08 257.88 321.10 249.07 315.85 241.22 C 320.91 243.17 324.22 246.86 328.25 250.26 C 325.33 244.71 322.51 239.20 318.62 234.25 Z" id="p20" />
<path d="M 351.79 233.39 C 356.51 244.52 359.17 255.73 359.25 267.87 C 354.77 261.03 350.72 254.15 344.77 248.40 C 346.95 248.46 349.13 248.47 351.30 248.52 C 352.77 243.38 351.37 238.55 351.79 233.39 Z" id="p21" />
<path d="M 192.78 240.02 C 192.68 241.47 192.56 242.91 192.41 244.36 C 190.87 246.70 189.53 249.11 188.31 251.63 C 190.58 249.82 192.83 248.08 195.49 246.85 C 196.32 248.63 196.64 250.06 196.70 252.01 C 191.91 256.49 187.90 261.83 184.27 267.27 C 178.40 276.02 176.03 286.54 176.77 297.00 C 176.76 304.57 179.18 311.07 181.48 318.16 C 180.79 322.36 182.59 325.38 184.34 328.97 C 184.05 330.04 183.76 331.11 183.46 332.19 C 181.79 328.83 181.54 323.68 177.27 322.80 C 172.30 310.19 169.12 295.53 168.66 281.99 C 168.18 270.48 170.50 258.01 178.10 248.97 C 180.17 247.60 181.93 246.75 184.48 246.89 C 186.84 243.75 188.12 239.83 192.78 240.02 Z" id="p22" />
<path d="M 207.93 241.51 C 204.09 244.90 200.31 248.38 196.70 252.01 C 196.64 250.06 196.32 248.63 195.49 246.85 C 199.52 244.97 203.59 242.54 207.93 241.51 Z" id="p23" />
<path d="M 336.14 248.96 C 339.25 253.55 342.49 257.44 344.53 262.51 C 349.83 274.47 352.64 289.38 346.58 301.58 C 346.76 290.25 343.66 278.26 335.66 269.91 C 337.67 268.33 338.61 267.12 339.49 264.75 C 340.59 265.26 341.69 265.76 342.78 266.26 C 342.25 262.78 341.36 259.62 339.22 256.77 C 337.60 253.99 334.96 252.52 336.14 248.96 Z" id="p24" />
<path d="M 213.64 257.02 C 209.88 260.55 206.71 264.49 203.53 268.54 C 203.61 266.75 203.67 264.96 203.72 263.18 C 200.13 263.78 198.05 266.18 195.60 268.61 C 192.38 271.65 191.56 276.73 190.18 280.81 C 190.02 279.81 189.87 278.80 189.73 277.80 C 190.26 275.28 191.06 272.62 192.50 270.46 C 196.75 264.48 202.73 260.13 209.46 257.32 C 210.85 257.20 212.25 257.09 213.64 257.02 Z" id="p25" />
<path d="M 234.40 262.60 C 235.84 262.89 237.25 263.32 238.66 263.69 C 239.13 263.89 239.61 264.08 240.08 264.27 C 238.42 264.36 236.77 264.49 235.11 264.52 C 234.24 264.05 234.01 263.41 234.40 262.60 Z" id="p26" />
<path d="M 283.22 263.10 C 284.23 262.56 285.44 262.48 286.82 262.86 C 286.16 264.12 284.83 265.03 283.71 265.88 C 283.37 264.95 283.21 264.03 283.22 263.10 Z" id="p27" />
<path d="M 203.72 263.18 C 203.67 264.96 203.61 266.75 203.53 268.54 C 197.24 276.25 192.29 285.86 191.11 295.83 C 189.59 290.09 188.63 283.68 189.73 277.80 C 189.87 278.80 190.02 279.81 190.18 280.81 C 191.56 276.73 192.38 271.65 195.60 268.61 C 198.05 266.18 200.13 263.78 203.72 263.18 Z" id="p28" />
<path d="M 238.40 270.13 C 237.81 271.54 235.58 271.59 234.75 270.39 C 235.43 269.63 238.13 268.50 238.40 270.13 Z" id="p29" />
<path d="M 280.99 269.45 C 282.89 269.48 284.76 269.67 286.60 270.12 C 285.39 270.52 284.15 271.10 282.88 271.29 C 282.22 270.71 281.59 270.10 280.99 269.45 Z" id="p30" />
<path d="M 221.51 269.40 C 220.35 271.97 219.06 274.55 218.10 277.19 C 216.58 277.34 213.96 276.53 213.22 278.29 C 211.29 281.54 209.32 284.88 207.80 288.35 C 205.95 293.59 206.44 299.85 206.21 305.37 C 204.98 298.20 205.21 290.97 208.31 284.30 C 210.60 278.93 214.46 274.65 219.11 271.21 C 219.91 270.61 220.71 270.00 221.51 269.40 Z" id="p31" />
<path d="M 301.94 269.27 C 308.00 277.27 314.15 283.87 316.77 293.90 C 315.07 296.89 315.37 299.93 315.43 303.21 C 314.65 303.44 313.86 303.67 313.07 303.90 C 312.71 302.77 312.29 301.66 311.90 300.54 C 311.51 301.01 311.13 301.46 310.74 301.92 C 308.52 303.69 307.05 305.54 305.68 307.98 C 304.78 307.33 303.85 306.68 303.02 305.94 C 302.36 304.18 302.37 302.09 302.16 300.24 C 302.83 300.80 303.50 301.37 304.17 301.93 C 304.30 300.18 304.42 298.43 304.49 296.67 C 304.90 297.79 305.30 298.91 305.69 300.03 C 306.55 290.62 305.20 281.81 302.54 272.81 C 302.32 271.63 302.13 270.45 301.94 269.27 Z" id="p32" />
<path d="M 218.10 277.19 C 215.15 286.21 213.21 295.48 212.91 304.99 C 212.78 311.68 212.82 318.20 215.11 324.56 C 213.53 322.82 212.08 321.03 211.08 318.89 C 209.06 314.66 206.89 310.03 206.21 305.37 C 206.44 299.85 205.95 293.59 207.80 288.35 C 209.32 284.88 211.29 281.54 213.22 278.29 C 213.96 276.53 216.58 277.34 218.10 277.19 Z" id="p33" />
<path d="M 256.19 280.37 C 264.10 277.79 273.33 284.15 280.94 285.90 C 280.64 289.42 280.73 292.57 278.63 295.59 C 276.11 299.10 271.40 301.68 267.00 300.66 C 263.55 300.06 260.38 300.23 257.27 298.42 C 256.31 299.20 255.27 300.86 253.93 300.77 C 249.23 300.49 243.99 298.82 241.38 294.60 C 239.52 291.86 239.21 288.88 239.28 285.66 C 245.09 284.37 250.59 282.34 256.19 280.37 Z" id="p34" />
<path d="M 295.87 284.75 C 299.68 288.04 302.84 291.85 304.49 296.67 C 304.42 298.43 304.30 300.18 304.17 301.93 C 303.50 301.37 302.83 300.80 302.16 300.24 C 302.37 302.09 302.36 304.18 303.02 305.94 C 303.85 306.68 304.78 307.33 305.68 307.98 C 307.05 305.54 308.52 303.69 310.74 301.92 C 310.11 307.40 309.05 312.76 306.92 317.87 C 303.88 324.45 300.95 330.82 295.75 336.05 C 301.17 319.34 300.67 301.53 295.87 284.75 Z" id="p35" />
<path d="M 227.20 288.25 C 227.11 290.87 227.00 293.42 227.20 296.05 C 227.79 301.84 230.74 307.09 235.45 310.53 C 243.45 316.49 251.44 323.33 255.14 332.89 C 258.90 345.51 255.65 356.63 252.79 368.93 C 251.55 373.62 251.33 377.43 252.17 382.23 C 248.25 377.43 245.74 372.34 244.74 366.18 C 243.06 355.58 244.11 345.84 239.81 335.48 C 239.03 339.88 238.86 344.32 238.86 348.79 C 235.14 340.95 229.62 334.23 225.46 326.57 C 221.61 318.96 218.17 311.82 219.17 303.00 C 220.22 297.34 222.70 291.98 227.20 288.25 Z" id="p36" />
<path d="M 336.49 290.04 C 336.29 303.29 332.65 316.55 326.11 328.08 C 323.04 334.76 317.59 339.09 313.15 345.21 C 316.55 339.96 320.26 335.15 322.49 329.22 C 327.12 318.61 329.36 306.75 328.57 295.19 C 330.67 297.83 330.59 301.18 332.42 303.96 C 334.03 299.49 333.42 293.68 336.49 290.04 Z" id="p37" />
<path d="M 316.77 293.90 C 319.18 302.18 320.00 310.97 318.28 319.48 C 316.69 327.74 312.96 334.94 309.18 342.36 C 313.44 329.73 315.96 317.19 313.07 303.90 C 313.86 303.67 314.65 303.44 315.43 303.21 C 315.37 299.93 315.07 296.89 316.77 293.90 Z" id="p38" />
<path d="M 279.19 304.43 C 281.22 307.66 283.17 310.90 284.70 314.41 C 284.33 318.00 284.35 321.16 285.33 324.66 C 286.68 328.83 283.94 332.89 282.54 336.73 C 281.45 334.30 280.28 331.94 278.66 329.82 C 278.41 329.48 278.16 329.14 277.90 328.81 L 277.30 330.59 C 274.86 334.22 275.95 338.14 274.37 342.09 C 272.83 340.00 270.39 337.83 270.51 335.04 C 269.91 329.48 272.25 323.75 267.04 319.90 C 265.96 316.12 264.39 312.60 262.64 309.10 C 265.65 309.89 268.31 310.65 270.47 313.07 C 270.64 311.97 270.83 310.87 271.01 309.78 C 271.57 311.03 272.13 312.29 272.69 313.55 C 273.47 313.67 274.25 313.79 275.03 313.91 C 274.58 312.43 273.74 310.84 273.80 309.29 C 275.24 307.40 277.55 306.17 279.19 304.43 Z" id="p39" />
<path d="M 284.70 314.41 C 292.60 330.15 285.32 350.19 271.00 359.53 C 272.12 357.96 273.41 356.77 273.86 354.83 C 275.06 350.48 276.99 346.46 277.94 342.03 C 278.95 338.00 278.92 333.93 278.66 329.82 C 280.28 331.94 281.45 334.30 282.54 336.73 C 283.94 332.89 286.68 328.83 285.33 324.66 C 284.35 321.16 284.33 318.00 284.70 314.41 Z" id="p40" />
<path d="M 181.48 318.16 C 184.84 325.94 189.26 333.07 193.77 340.21 C 199.85 348.91 206.98 356.72 214.93 363.73 C 210.00 361.58 205.27 359.28 201.03 355.91 C 189.23 347.75 182.54 335.82 177.27 322.80 C 181.54 323.68 181.79 328.83 183.46 332.19 C 183.76 331.11 184.05 330.04 184.34 328.97 C 182.59 325.38 180.79 322.36 181.48 318.16 Z" id="p41" />
<path d="M 267.04 319.90 C 272.25 323.75 269.91 329.48 270.51 335.04 C 270.39 337.83 272.83 340.00 274.37 342.09 C 275.95 338.14 274.86 334.22 277.30 330.59 C 276.80 340.86 273.80 350.75 268.70 359.65 C 265.40 365.27 260.62 369.09 255.81 373.30 C 260.02 366.29 264.10 359.66 266.68 351.82 C 269.93 341.68 269.45 330.16 267.04 319.90 Z" id="p42" />
</defs>
<g stroke-width="10pt">
<use stroke="#ffffff" xlink:href="#p0" />
<use stroke="#010124" xlink:href="#p1" />
<use stroke="#fef5af" xlink:href="#p2" />
<use stroke="#fef5af" xlink:href="#p3" />
<use stroke="#fef5af" xlink:href="#p4" />
<use stroke="#fef5af" xlink:href="#p5" />
<use stroke="#ffffff" xlink:href="#p6" />
<use stroke="#ffffff" xlink:href="#p7" />
<use stroke="#ffffff" xlink:href="#p8" />
<use stroke="#ffffff" xlink:href="#p9" />
<use stroke="#ffffff" xlink:href="#p10" />
<use stroke="#fef5af" xlink:href="#p11" />
<use stroke="#ffffff" xlink:href="#p12" />
<use stroke="#fef5af" xlink:href="#p13" />
<use stroke="#fef5af" xlink:href="#p14" />
<use stroke="#ffffff" xlink:href="#p15" />
<use stroke="#ffffff" xlink:href="#p16" />
<use stroke="#ffffff" xlink:href="#p17" />
<use stroke="#ffffff" xlink:href="#p18" />
<use stroke="#ffffff" xlink:href="#p19" />
<use stroke="#fef5af" xlink:href="#p20" />
<use stroke="#ffffff" xlink:href="#p21" />
<use stroke="#fef5af" xlink:href="#p22" />
<use stroke="#ffffff" xlink:href="#p23" />
<use stroke="#ffffff" xlink:href="#p24" />
<use stroke="#ffffff" xlink:href="#p25" />
<use stroke="#010124" xlink:href="#p26" />
<use stroke="#010124" xlink:href="#p27" />
<use stroke="#fef5af" xlink:href="#p28" />
<use stroke="#010124" xlink:href="#p29" />
<use stroke="#010124" xlink:href="#p30" />
<use stroke="#ffffff" xlink:href="#p31" />
<use stroke="#fef5af" xlink:href="#p32" />
<use stroke="#fef5af" xlink:href="#p33" />
<use stroke="#ffffff" xlink:href="#p34" />
<use stroke="#ffffff" xlink:href="#p35" />
<use stroke="#fef5af" xlink:href="#p36" />
<use stroke="#ffffff" xlink:href="#p37" />
<use stroke="#ffffff" xlink:href="#p38" />
<use stroke="#fef5af" xlink:href="#p39" />
<use stroke="#fef5af" xlink:href="#p40" />
<use stroke="#ffffff" xlink:href="#p41" />
<use stroke="#ffffff" xlink:href="#p42" />
</g>
<g>
<use fill="#ffffff" xlink:href="#p0" />
<use fill="#010124" xlink:href="#p1" />
<use fill="#fef5af" xlink:href="#p2" />
<use fill="#fef5af" xlink:href="#p3" />
<use fill="#fef5af" xlink:href="#p4" />
<use fill="#fef5af" xlink:href="#p5" />
<use fill="#ffffff" xlink:href="#p6" />
<use fill="#ffffff" xlink:href="#p7" />
<use fill="#ffffff" xlink:href="#p8" />
<use fill="#ffffff" xlink:href="#p9" />
<use fill="#ffffff" xlink:href="#p10" />
<use fill="#fef5af" xlink:href="#p11" />
<use fill="#ffffff" xlink:href="#p12" />
<use fill="#fef5af" xlink:href="#p13" />
<use fill="#fef5af" xlink:href="#p14" />
<use fill="#ffffff" xlink:href="#p15" />
<use fill="#ffffff" xlink:href="#p16" />
<use fill="#ffffff" xlink:href="#p17" />
<use fill="#ffffff" xlink:href="#p18" />
<use fill="#ffffff" xlink:href="#p19" />
<use fill="#fef5af" xlink:href="#p20" />
<use fill="#ffffff" xlink:href="#p21" />
<use fill="#fef5af" xlink:href="#p22" />
<use fill="#ffffff" xlink:href="#p23" />
<use fill="#ffffff" xlink:href="#p24" />
<use fill="#ffffff" xlink:href="#p25" />
<use fill="#010124" xlink:href="#p26" />
<use fill="#010124" xlink:href="#p27" />
<use fill="#fef5af" xlink:href="#p28" />
<use fill="#010124" xlink:href="#p29" />
<use fill="#010124" xlink:href="#p30" />
<use fill="#ffffff" xlink:href="#p31" />
<use fill="#fef5af" xlink:href="#p32" />
<use fill="#fef5af" xlink:href="#p33" />
<use fill="#ffffff" xlink:href="#p34" />
<use fill="#ffffff" xlink:href="#p35" />
<use fill="#fef5af" xlink:href="#p36" />
<use fill="#ffffff" xlink:href="#p37" />
<use fill="#ffffff" xlink:href="#p38" />
<use fill="#fef5af" xlink:href="#p39" />
<use fill="#fef5af" xlink:href="#p40" />
<use fill="#ffffff" xlink:href="#p41" />
<use fill="#ffffff" xlink:href="#p42" />
</g>
</svg>